<?xml version="1.0" encoding="UTF-8"?><svg id="Capa_2" xmlns="http://www.w3.org/2000/svg" viewBox="0 0 7.5693 7.8144"><defs><style>.cls-1{fill:#fefefe;}</style></defs><g id="Capa_1-2"><path class="cls-1" d="M6.2168,1.2774c.3336,0,.6051.2714.6051.605v4.5795c0,.3336-.2714.605-.6051.605H1.3525c-.3336,0-.6051-.2714-.6051-.605V1.8824c0-.3336.2714-.605.6051-.605h4.8643M6.2168.53H1.3525C.6055.53,0,1.1355,0,1.8824v4.5795c0,.7469.6055,1.3525,1.3525,1.3525h4.8643c.747,0,1.3525-.6055,1.3525-1.3525V1.8824c0-.7469-.6055-1.3525-1.3525-1.3525h0Z"/><rect class="cls-1" x="1.4751" width=".6644" height="1.8824" rx=".3164" ry=".3164"/><rect class="cls-1" x="5.4298" width=".6644" height="1.8824" rx=".3164" ry=".3164"/><rect class="cls-1" x="3.4524" y="-.6486" width=".6644" height="6.8653" rx=".3322" ry=".3322" transform="translate(1.0005 6.5687) rotate(-90)"/><circle class="cls-1" cx="1.9813" cy="4.3106" r=".4983"/><circle class="cls-1" cx="3.7846" cy="4.2948" r=".4983"/><circle class="cls-1" cx="5.588" cy="4.2632" r=".4983"/><circle class="cls-1" cx="1.9813" cy="5.9558" r=".4983"/><circle class="cls-1" cx="3.7846" cy="5.9399" r=".4983"/><circle class="cls-1" cx="5.588" cy="5.9083" r=".4983"/></g></svg>