<?xml version="1.0" encoding="UTF-8"?><svg id="Capa_2" xmlns="http://www.w3.org/2000/svg" viewBox="0 0 6.6122 8.1842"><defs><style>.cls-1{fill:#fefefe;}</style></defs><g id="Capa_1-2"><path class="cls-1" d="M5.8846.4963h-1.9713c-.0585-.2838-.2953-.4963-.579-.4963s-.5205.2125-.579.4963H.7277c-.4019,0-.7277.3258-.7277.7277v6.2326c0,.4019.3258.7277.7277.7277h5.1569c.4019,0,.7277-.3258.7277-.7277V1.224c0-.4019-.3258-.7277-.7277-.7277ZM5.8648,7.4368H.7474V1.2437h1.4094v.4063c0,.1327.1076.2402.2402.2402h1.8745c.1327,0,.2402-.1076.2402-.2402v-.4063h1.353v6.193Z"/><rect class="cls-1" x="1.6155" y="2.8929" width="3.3813" height=".6644" rx=".3322" ry=".3322"/><rect class="cls-1" x="1.6155" y="4.3165" width="3.3813" height=".6644" rx=".3322" ry=".3322"/><rect class="cls-1" x="1.6155" y="5.7402" width="3.3813" height=".6644" rx=".3322" ry=".3322"/></g></svg>