<?xml version="1.0" encoding="UTF-8"?><svg id="Capa_2" xmlns="http://www.w3.org/2000/svg" viewBox="0 0 6.5838 7.4721"><defs><style>.cls-1{fill:#fefefe;}</style></defs><g id="Capa_1-2"><path class="cls-1" d="M3.4016,3.622l-.2074.0004c-.2336-.0114-.4592-.0678-.6721-.1668-.1695-.0788-.3214-.1846-.4581-.3104l-.1061-.1065c-.3383-.3625-.5044-.837-.4776-1.3322.0127-.2354.07-.4629.1711-.6766.0795-.1681.1849-.3181.3105-.4537.0314-.034.0616-.0647.0952-.0951l.0469-.0424c.1269-.1148.271-.207.4268-.2797C2.7169.0727,2.9111.0214,3.1152,0h.3511c.407.0408.7612.2024,1.0599.4783l.0977.0979c.2713.2898.4519.6841.4777,1.081l.0046.0705-.0009.1792c-.0206.4263-.1909.8253-.4819,1.1365l-.097.097c-.3065.2885-.7021.458-1.1248.4815Z"/><path class="cls-1" d="M1.3898,5.9637c0,.2424.1965.439.439.439s.439-.1965.439-.439-.1965-.439-.439-.439-.439.1965-.439.439Z"/><path class="cls-1" d="M5.447,4.2925c-.1866-.109-.4363-.2541-.7162-.2725.0116.1291.0202.2635.0244.4034.0045.1458.0041.2858,0,.4192.1915.1218.6404.4469.7751,1.0045.0649.2688.0778.6857-.1107.8463-.029.0247-.111.0945-.2106.0811-.0925-.0124-.1501-.0899-.1612-.1048-.1342-.1807.0649-.4135.0554-.7118-.0125-.3906-.4148-.8139-.7118-.7672-.2681.0421-.4042.4598-.4113.4825-.0486.1551-.0695.3879-.0395.6169.0202.1542.0654.2969-.0158.3955-.0257.0312-.0725.0683-.1335.083,0,0-.0854.0206-.175-.0198-.183-.0826-.292-.7621,0-1.2971.1869-.3425.4854-.5289.6881-.6248.0158-.1336.0258-.2849.0237-.4508-.0012-.0991-.007-.1925-.0153-.281-.2273.0921-.4646.2404-.8814.2823-.0417.0042-.0783.0066-.1096.0081v-.0018c-.0373-.0008-.0968-.003-.1693-.0102-.5092-.0511-.7507-.261-1.0332-.3332-.0342.1143-.0642.2435-.0829.3872-.0407.3119-.0142.5742.0178.7534.3194.1022.5578.3491.6051.6407.0732.451-.323.9342-.8186.9373-.4339.0027-.8353-.3633-.8305-.8068.0038-.3449.2526-.6638.6169-.7712-.0252-.1895-.0404-.4652.0178-.789.024-.1333.0569-.2536.0931-.3612-.2332.0436-.4406.1643-.6012.2581C.0752,4.9085-.3194,6.7271.2825,7.2783c.1481.1357.3433.1807.522.1898h2.4595v.004h2.5152c.1787-.0091.3739-.0542.522-.1898.602-.5513.2073-2.3698-.8542-2.9897Z"/></g></svg>