<?xml version="1.0" encoding="UTF-8"?><svg id="Capa_2" xmlns="http://www.w3.org/2000/svg" viewBox="0 0 6.5838 7.4721"><defs><style>.cls-1{fill:#fefefe;}</style></defs><g id="Capa_1-2"><path class="cls-1" d="M3.4016,3.622l-.2074.0004c-.2336-.0114-.4592-.0678-.6721-.1668-.1695-.0788-.3214-.1846-.4581-.3104l-.1061-.1065c-.3383-.3625-.5044-.837-.4776-1.3322.0127-.2354.07-.4629.1711-.6766.0795-.1681.1849-.3181.3105-.4537.0314-.034.0616-.0647.0952-.0951l.0469-.0424c.1269-.1148.271-.207.4268-.2797C2.7169.0727,2.9111.0214,3.1152,0h.3511c.407.0408.7612.2024,1.0599.4783l.0977.0979c.2713.2898.4519.6841.4777,1.081l.0046.0705-.0009.1792c-.0206.4263-.1909.8253-.4819,1.1365l-.097.097c-.3065.2885-.7021.458-1.1248.4815Z"/><path class="cls-1" d="M5.447,4.2925c-.2387-.1394-.5805-.339-.957-.2551-.2938.0655-.5341.2871-1.0586.3398-.0417.0042-.0783.0066-.1096.0081v-.0018c-.0373-.0008-.0968-.003-.1693-.0102-.5245-.0526-.7648-.2742-1.0586-.3398-.3765-.0839-.7184.1157-.957.2551C.0752,4.9085-.3194,6.7271.2825,7.2783c.1481.1357.3433.1807.522.1898h2.4595v.004h2.5152c.1787-.0091.3739-.0542.522-.1898.602-.5513.2073-2.3698-.8542-2.9897Z"/></g></svg>